<mxfile host="app.diagrams.net" modified="2023-01-04T03:36:27.860Z" agent="5.0 (Windows NT 10.0; Win64; x64) AppleWebKit/537.36 (KHTML, like Gecko) Chrome/106.0.0.0 YaBrowser/22.11.5.715 Yowser/2.5 Safari/537.36" etag="h8gGmJ2DiAZFEuYqxlNl" version="20.8.1" type="github">
  <diagram id="wFE0QG_FPsp0jaGvCLVb" name="Page-1">
    <mxGraphModel dx="1195" dy="659" grid="1" gridSize="10" guides="1" tooltips="1" connect="1" arrows="1" fold="1" page="1" pageScale="1" pageWidth="850" pageHeight="1100" math="0" shadow="0">
      <root>
        <mxCell id="0" />
        <mxCell id="1" parent="0" />
        <mxCell id="_5mSTuPxr-ZiKRkBDSY7-1" value="" style="swimlane;fontStyle=2;childLayout=stackLayout;horizontal=1;startSize=28;horizontalStack=1;resizeParent=1;resizeParentMax=0;resizeLast=0;collapsible=0;marginBottom=0;swimlaneFillColor=none;fontFamily=Permanent Marker;fontSize=16;points=[];verticalAlign=top;stackBorder=0;resizable=1;strokeWidth=2;sketch=1;disableMultiStroke=1;" parent="1" vertex="1">
          <mxGeometry x="160" y="80" width="1620" height="518" as="geometry" />
        </mxCell>
        <object label="PAST SIMPLE" status="New" id="_5mSTuPxr-ZiKRkBDSY7-2">
          <mxCell style="swimlane;strokeWidth=2;fontFamily=Permanent Marker;html=0;startSize=1;verticalAlign=bottom;spacingBottom=5;points=[];childLayout=stackLayout;stackBorder=20;stackSpacing=20;resizeLast=0;resizeParent=1;horizontalStack=0;collapsible=0;sketch=1;strokeColor=none;fillStyle=solid;fillColor=#A0522D;" parent="_5mSTuPxr-ZiKRkBDSY7-1" vertex="1">
            <mxGeometry y="28" width="180" height="490" as="geometry" />
          </mxCell>
        </object>
        <object label="формула&lt;br&gt;&lt;span style=&quot;font-size: 10px; font-weight: 400;&quot;&gt;&lt;i&gt;V2, Ved&lt;br&gt;(2 форма неправильного глагола или -ed окончание)&lt;br&gt;&lt;/i&gt;&lt;/span&gt;" placeholders="1" id="_5mSTuPxr-ZiKRkBDSY7-3">
          <mxCell style="whiteSpace=wrap;html=1;strokeWidth=2;fontStyle=1;spacingTop=0;rounded=1;arcSize=9;points=[];sketch=1;fontFamily=Permanent Marker;hachureGap=8;fillWeight=1;" parent="_5mSTuPxr-ZiKRkBDSY7-2" vertex="1">
            <mxGeometry x="20" y="21" width="140" height="80" as="geometry" />
          </mxCell>
        </object>
        <object label="&lt;i style=&quot;border-color: var(--border-color); font-size: 10px; font-weight: 400;&quot;&gt;Используем когда действие произошло в прошлом&lt;/i&gt;" placeholders="1" id="_5mSTuPxr-ZiKRkBDSY7-4">
          <mxCell style="whiteSpace=wrap;html=1;strokeWidth=2;fontStyle=1;spacingTop=0;rounded=1;arcSize=9;points=[];sketch=1;fontFamily=Permanent Marker;hachureGap=8;fillWeight=1;" parent="_5mSTuPxr-ZiKRkBDSY7-2" vertex="1">
            <mxGeometry x="20" y="121" width="140" height="80" as="geometry" />
          </mxCell>
        </object>
        <object label="Пример&lt;br&gt;&lt;span style=&quot;&quot;&gt;&lt;span style=&quot;font-weight: 400;&quot;&gt;I &lt;/span&gt;made &lt;span style=&quot;font-weight: 400;&quot;&gt;dinner last night.&lt;br&gt;Yesterday, I &lt;/span&gt;finished &lt;span style=&quot;font-weight: 400;&quot;&gt;all my work&amp;nbsp; for the week.&lt;br&gt;&lt;/span&gt;&lt;/span&gt;" placeholders="1" id="_5mSTuPxr-ZiKRkBDSY7-5">
          <mxCell style="whiteSpace=wrap;html=1;strokeWidth=2;fontStyle=1;spacingTop=0;rounded=1;arcSize=9;points=[];sketch=1;fontFamily=Permanent Marker;hachureGap=8;fillWeight=1;" parent="_5mSTuPxr-ZiKRkBDSY7-2" vertex="1">
            <mxGeometry x="20" y="221" width="140" height="80" as="geometry" />
          </mxCell>
        </object>
        <object label="PRESENT SIMPLE" status="New" id="KVlz2lxXD8eBiIUDvbPp-17">
          <mxCell style="swimlane;strokeWidth=2;fontFamily=Permanent Marker;html=0;startSize=1;verticalAlign=bottom;spacingBottom=5;points=[];childLayout=stackLayout;stackBorder=20;stackSpacing=20;resizeLast=0;resizeParent=1;horizontalStack=0;collapsible=0;sketch=1;strokeColor=none;fillStyle=solid;fillColor=#A0522D;" vertex="1" parent="_5mSTuPxr-ZiKRkBDSY7-1">
            <mxGeometry x="180" y="28" width="180" height="490" as="geometry" />
          </mxCell>
        </object>
        <object label="формула&lt;br&gt;&lt;span style=&quot;font-size: 10px; font-weight: 400;&quot;&gt;&lt;i&gt;V, Vs&lt;/i&gt;&lt;/span&gt;" placeholders="1" id="KVlz2lxXD8eBiIUDvbPp-18">
          <mxCell style="whiteSpace=wrap;html=1;strokeWidth=2;fontStyle=1;spacingTop=0;rounded=1;arcSize=9;points=[];sketch=1;fontFamily=Permanent Marker;hachureGap=8;fillWeight=1;" vertex="1" parent="KVlz2lxXD8eBiIUDvbPp-17">
            <mxGeometry x="20" y="21" width="140" height="80" as="geometry" />
          </mxCell>
        </object>
        <object label="&lt;span style=&quot;font-size: 10px; font-weight: 400;&quot;&gt;&lt;i&gt;Говорить о вещах, которые происходят на регулярной основе в настоящем времени, в настоящий момент нашей жизни&lt;/i&gt;&lt;/span&gt;" placeholders="1" id="KVlz2lxXD8eBiIUDvbPp-19">
          <mxCell style="whiteSpace=wrap;html=1;strokeWidth=2;fontStyle=1;spacingTop=0;rounded=1;arcSize=9;points=[];sketch=1;fontFamily=Permanent Marker;hachureGap=8;fillWeight=1;" vertex="1" parent="KVlz2lxXD8eBiIUDvbPp-17">
            <mxGeometry x="20" y="121" width="140" height="80" as="geometry" />
          </mxCell>
        </object>
        <object label="Пример&lt;br&gt;I make &lt;span style=&quot;font-weight: normal;&quot;&gt;youtube videos. &lt;/span&gt;&lt;br&gt;She &lt;span style=&quot;font-weight: normal;&quot;&gt;always &lt;/span&gt;wears &lt;span style=&quot;font-weight: normal;&quot;&gt;a hat when it`s cold.&lt;/span&gt;&lt;br&gt;&lt;span style=&quot;font-weight: normal;&quot;&gt;--&lt;/span&gt;&lt;br&gt;&lt;font style=&quot;font-size: 10px;&quot;&gt;&lt;span style=&quot;font-weight: normal;&quot;&gt;если главную роль имеет не глагол &lt;/span&gt;wear&lt;span style=&quot;font-weight: normal;&quot;&gt;, а например прилагательное &lt;/span&gt;fine&lt;span style=&quot;font-weight: normal;&quot;&gt;, то тогда вместо традиционного глагола нужно использовать вспомогательный глагол&lt;/span&gt;&lt;/font&gt; &lt;font style=&quot;font-size: 10px;&quot;&gt;to be&lt;/font&gt;&lt;br&gt;--&lt;br&gt;I am, You are, He/She/It is, We are, They are&lt;br&gt;He is fine.&amp;nbsp;" placeholders="1" id="KVlz2lxXD8eBiIUDvbPp-20">
          <mxCell style="whiteSpace=wrap;html=1;strokeWidth=2;fontStyle=1;spacingTop=0;rounded=1;arcSize=9;points=[];sketch=1;fontFamily=Permanent Marker;hachureGap=8;fillWeight=1;" vertex="1" parent="KVlz2lxXD8eBiIUDvbPp-17">
            <mxGeometry x="20" y="221" width="140" height="229" as="geometry" />
          </mxCell>
        </object>
        <object label="FUTURE SIMPLE" status="New" id="KVlz2lxXD8eBiIUDvbPp-22">
          <mxCell style="swimlane;strokeWidth=2;fontFamily=Permanent Marker;html=0;startSize=1;verticalAlign=bottom;spacingBottom=5;points=[];childLayout=stackLayout;stackBorder=20;stackSpacing=20;resizeLast=0;resizeParent=1;horizontalStack=0;collapsible=0;sketch=1;strokeColor=none;fillStyle=solid;fillColor=#A0522D;" vertex="1" parent="_5mSTuPxr-ZiKRkBDSY7-1">
            <mxGeometry x="360" y="28" width="180" height="490" as="geometry" />
          </mxCell>
        </object>
        <object label="формула&lt;br&gt;&lt;span style=&quot;font-size: 10px; font-weight: 400;&quot;&gt;&lt;i&gt;will + V&lt;/i&gt;&lt;/span&gt;" placeholders="1" id="KVlz2lxXD8eBiIUDvbPp-23">
          <mxCell style="whiteSpace=wrap;html=1;strokeWidth=2;fontStyle=1;spacingTop=0;rounded=1;arcSize=9;points=[];sketch=1;fontFamily=Permanent Marker;hachureGap=8;fillWeight=1;" vertex="1" parent="KVlz2lxXD8eBiIUDvbPp-22">
            <mxGeometry x="20" y="21" width="140" height="80" as="geometry" />
          </mxCell>
        </object>
        <object label="&lt;i style=&quot;border-color: var(--border-color); font-size: 10px; font-weight: 400;&quot;&gt;Используем когда говорим о будущем. Добавляем &lt;/i&gt;&lt;i style=&quot;border-color: var(--border-color); font-size: 10px;&quot;&gt;will &lt;/i&gt;&lt;i style=&quot;border-color: var(--border-color); font-size: 10px; font-weight: 400;&quot;&gt;перед глаголом. Глагол не меняется&lt;/i&gt;" placeholders="1" id="KVlz2lxXD8eBiIUDvbPp-24">
          <mxCell style="whiteSpace=wrap;html=1;strokeWidth=2;fontStyle=1;spacingTop=0;rounded=1;arcSize=9;points=[];sketch=1;fontFamily=Permanent Marker;hachureGap=8;fillWeight=1;" vertex="1" parent="KVlz2lxXD8eBiIUDvbPp-22">
            <mxGeometry x="20" y="121" width="140" height="80" as="geometry" />
          </mxCell>
        </object>
        <object label="Пример&lt;br&gt;&lt;span style=&quot;&quot;&gt;&lt;span style=&quot;font-weight: 400;&quot;&gt;I &lt;/span&gt;will clean up &lt;span style=&quot;font-weight: 400;&quot;&gt;this mess tomorrow.&lt;br&gt;I&lt;/span&gt;`ll get&lt;span style=&quot;font-weight: 400;&quot;&gt; a Christmas tree next week&lt;br&gt;&lt;/span&gt;&lt;/span&gt;" placeholders="1" id="KVlz2lxXD8eBiIUDvbPp-25">
          <mxCell style="whiteSpace=wrap;html=1;strokeWidth=2;fontStyle=1;spacingTop=0;rounded=1;arcSize=9;points=[];sketch=1;fontFamily=Permanent Marker;hachureGap=8;fillWeight=1;" vertex="1" parent="KVlz2lxXD8eBiIUDvbPp-22">
            <mxGeometry x="20" y="221" width="140" height="80" as="geometry" />
          </mxCell>
        </object>
        <object label="PAST CONTINUOUS" status="New" id="KVlz2lxXD8eBiIUDvbPp-26">
          <mxCell style="swimlane;strokeWidth=2;fontFamily=Permanent Marker;html=0;startSize=1;verticalAlign=bottom;spacingBottom=5;points=[];childLayout=stackLayout;stackBorder=20;stackSpacing=20;resizeLast=0;resizeParent=1;horizontalStack=0;collapsible=0;sketch=1;strokeColor=none;fillStyle=solid;fillColor=#A0522D;" vertex="1" parent="_5mSTuPxr-ZiKRkBDSY7-1">
            <mxGeometry x="540" y="28" width="180" height="490" as="geometry" />
          </mxCell>
        </object>
        <object label="&lt;font style=&quot;&quot;&gt;формула&lt;br&gt;&lt;/font&gt;&lt;font style=&quot;font-weight: normal; font-style: italic; font-size: 10px;&quot;&gt;was, were + Ving&lt;br&gt;(&lt;/font&gt;&lt;font style=&quot;font-style: italic; font-size: 10px;&quot;&gt;was &lt;/font&gt;&lt;font style=&quot;font-weight: normal; font-style: italic; font-size: 10px;&quot;&gt;- подлежащие в ед. числе, если во множ. то &lt;/font&gt;&lt;font style=&quot;font-style: italic; font-size: 10px;&quot;&gt;were&lt;/font&gt;&lt;font style=&quot;font-weight: normal; font-style: italic; font-size: 10px;&quot;&gt;)&lt;br&gt;&lt;/font&gt;" placeholders="1" id="KVlz2lxXD8eBiIUDvbPp-27">
          <mxCell style="whiteSpace=wrap;html=1;strokeWidth=2;fontStyle=1;spacingTop=0;rounded=1;arcSize=9;points=[];sketch=1;fontFamily=Permanent Marker;hachureGap=8;fillWeight=1;" vertex="1" parent="KVlz2lxXD8eBiIUDvbPp-26">
            <mxGeometry x="20" y="21" width="140" height="80" as="geometry" />
          </mxCell>
        </object>
        <object label="&lt;i style=&quot;border-color: var(--border-color); font-size: 10px; font-weight: 400;&quot;&gt;Используем когда говорим о&amp;nbsp; продолжительном действии в прошлом.&lt;/i&gt;" placeholders="1" id="KVlz2lxXD8eBiIUDvbPp-28">
          <mxCell style="whiteSpace=wrap;html=1;strokeWidth=2;fontStyle=1;spacingTop=0;rounded=1;arcSize=9;points=[];sketch=1;fontFamily=Permanent Marker;hachureGap=8;fillWeight=1;" vertex="1" parent="KVlz2lxXD8eBiIUDvbPp-26">
            <mxGeometry x="20" y="121" width="140" height="80" as="geometry" />
          </mxCell>
        </object>
        <object label="&lt;font style=&quot;border-color: var(--border-color);&quot;&gt;Пример&lt;br style=&quot;border-color: var(--border-color);&quot;&gt;&lt;/font&gt;&lt;span style=&quot;font-weight: 400;&quot;&gt;I &lt;/span&gt;was watching &lt;span style=&quot;font-weight: 400;&quot;&gt;a Christmas movie last night.&lt;br&gt;&lt;/span&gt;" placeholders="1" id="KVlz2lxXD8eBiIUDvbPp-29">
          <mxCell style="whiteSpace=wrap;html=1;strokeWidth=2;fontStyle=1;spacingTop=0;rounded=1;arcSize=9;points=[];sketch=1;fontFamily=Permanent Marker;hachureGap=8;fillWeight=1;" vertex="1" parent="KVlz2lxXD8eBiIUDvbPp-26">
            <mxGeometry x="20" y="221" width="140" height="80" as="geometry" />
          </mxCell>
        </object>
        <object label="PRESENT CONTINUOUS" status="New" id="KVlz2lxXD8eBiIUDvbPp-31">
          <mxCell style="swimlane;strokeWidth=2;fontFamily=Permanent Marker;html=0;startSize=1;verticalAlign=bottom;spacingBottom=5;points=[];childLayout=stackLayout;stackBorder=20;stackSpacing=20;resizeLast=0;resizeParent=1;horizontalStack=0;collapsible=0;sketch=1;strokeColor=none;fillStyle=solid;fillColor=#A0522D;" vertex="1" parent="_5mSTuPxr-ZiKRkBDSY7-1">
            <mxGeometry x="720" y="28" width="180" height="490" as="geometry" />
          </mxCell>
        </object>
        <object label="&lt;font style=&quot;&quot;&gt;формула&lt;br&gt;&lt;/font&gt;&lt;span style=&quot;font-size: 10px; font-weight: 400;&quot;&gt;&lt;i&gt;am, is, are + Ving&lt;/i&gt;&lt;/span&gt;" placeholders="1" id="KVlz2lxXD8eBiIUDvbPp-32">
          <mxCell style="whiteSpace=wrap;html=1;strokeWidth=2;fontStyle=1;spacingTop=0;rounded=1;arcSize=9;points=[];sketch=1;fontFamily=Permanent Marker;hachureGap=8;fillWeight=1;" vertex="1" parent="KVlz2lxXD8eBiIUDvbPp-31">
            <mxGeometry x="20" y="21" width="140" height="80" as="geometry" />
          </mxCell>
        </object>
        <object label="&lt;i style=&quot;border-color: var(--border-color); font-size: 10px; font-weight: 400;&quot;&gt;Используем когда говорим о&amp;nbsp; вещах, которые происходят сейчас в настоящий момент.&lt;/i&gt;" placeholders="1" id="KVlz2lxXD8eBiIUDvbPp-33">
          <mxCell style="whiteSpace=wrap;html=1;strokeWidth=2;fontStyle=1;spacingTop=0;rounded=1;arcSize=9;points=[];sketch=1;fontFamily=Permanent Marker;hachureGap=8;fillWeight=1;" vertex="1" parent="KVlz2lxXD8eBiIUDvbPp-31">
            <mxGeometry x="20" y="121" width="140" height="80" as="geometry" />
          </mxCell>
        </object>
        <object label="&lt;font style=&quot;&quot;&gt;Пример&lt;br&gt;&lt;/font&gt;&lt;span style=&quot;font-weight: 400;&quot;&gt;I &lt;/span&gt;am explaining&amp;nbsp; &lt;span style=&quot;font-weight: 400;&quot;&gt;english grammar to you right now.&lt;br&gt;&lt;/span&gt;&lt;span style=&quot;font-weight: normal;&quot;&gt;You &lt;/span&gt;are watching &lt;span style=&quot;font-weight: normal;&quot;&gt;LinguaTripTV.&lt;/span&gt;" placeholders="1" id="KVlz2lxXD8eBiIUDvbPp-34">
          <mxCell style="whiteSpace=wrap;html=1;strokeWidth=2;fontStyle=1;spacingTop=0;rounded=1;arcSize=9;points=[];sketch=1;fontFamily=Permanent Marker;hachureGap=8;fillWeight=1;" vertex="1" parent="KVlz2lxXD8eBiIUDvbPp-31">
            <mxGeometry x="20" y="221" width="140" height="80" as="geometry" />
          </mxCell>
        </object>
        <object label="FUTURE CONTINUOUS" status="In progress" id="_5mSTuPxr-ZiKRkBDSY7-6">
          <mxCell style="swimlane;strokeWidth=2;fontFamily=Permanent Marker;html=0;startSize=1;verticalAlign=bottom;spacingBottom=5;points=[];childLayout=stackLayout;stackBorder=20;stackSpacing=20;resizeLast=0;resizeParent=1;horizontalStack=0;collapsible=0;sketch=1;strokeColor=none;fillStyle=solid;fillColor=#006600;" parent="_5mSTuPxr-ZiKRkBDSY7-1" vertex="1">
            <mxGeometry x="900" y="28" width="180" height="490" as="geometry" />
          </mxCell>
        </object>
        <object label="формула&lt;br&gt;&lt;span style=&quot;font-size: 10px; font-weight: 400;&quot;&gt;&lt;i&gt;will be + Ving&lt;/i&gt;&lt;/span&gt;" placeholders="1" id="_5mSTuPxr-ZiKRkBDSY7-7">
          <mxCell style="whiteSpace=wrap;html=1;strokeWidth=2;fontStyle=1;spacingTop=0;rounded=1;arcSize=9;points=[];sketch=1;fontFamily=Permanent Marker;hachureGap=8;fillWeight=1;" parent="_5mSTuPxr-ZiKRkBDSY7-6" vertex="1">
            <mxGeometry x="20" y="21" width="140" height="80" as="geometry" />
          </mxCell>
        </object>
        <object label="&lt;i style=&quot;border-color: var(--border-color); font-size: 10px; font-weight: 400;&quot;&gt;Используем когда говорим о&amp;nbsp; вещах, которые происходят сейчас в настоящий момент.&lt;/i&gt;" placeholders="1" id="_5mSTuPxr-ZiKRkBDSY7-8">
          <mxCell style="whiteSpace=wrap;html=1;strokeWidth=2;fontStyle=1;spacingTop=0;rounded=1;arcSize=9;points=[];sketch=1;fontFamily=Permanent Marker;hachureGap=8;fillWeight=1;" parent="_5mSTuPxr-ZiKRkBDSY7-6" vertex="1">
            <mxGeometry x="20" y="121" width="140" height="80" as="geometry" />
          </mxCell>
        </object>
        <object label="&lt;font style=&quot;&quot;&gt;Пример&lt;br&gt;&lt;/font&gt;&lt;span style=&quot;font-weight: 400;&quot;&gt;I &lt;/span&gt;will be driving &lt;span style=&quot;font-weight: 400;&quot;&gt;to the grocery store around this time tomorrow.&lt;/span&gt;" placeholders="1" id="KVlz2lxXD8eBiIUDvbPp-37">
          <mxCell style="whiteSpace=wrap;html=1;strokeWidth=2;fontStyle=1;spacingTop=0;rounded=1;arcSize=9;points=[];sketch=1;fontFamily=Permanent Marker;hachureGap=8;fillWeight=1;" vertex="1" parent="_5mSTuPxr-ZiKRkBDSY7-6">
            <mxGeometry x="20" y="221" width="140" height="80" as="geometry" />
          </mxCell>
        </object>
        <object label="PAST PERFECT" status="Completed" id="_5mSTuPxr-ZiKRkBDSY7-9">
          <mxCell style="swimlane;strokeWidth=2;fontFamily=Permanent Marker;html=0;startSize=1;verticalAlign=bottom;spacingBottom=5;points=[];childLayout=stackLayout;stackBorder=20;stackSpacing=20;resizeLast=0;resizeParent=1;horizontalStack=0;collapsible=0;sketch=1;strokeColor=none;fillStyle=solid;fillColor=#1BA1E2;" parent="_5mSTuPxr-ZiKRkBDSY7-1" vertex="1">
            <mxGeometry x="1080" y="28" width="180" height="490" as="geometry" />
          </mxCell>
        </object>
        <object label="формула&lt;br style=&quot;border-color: var(--border-color);&quot;&gt;&lt;span style=&quot;font-size: 10px; font-weight: 400;&quot;&gt;&lt;i&gt;had + V3, Ved&lt;/i&gt;&lt;/span&gt;" placeholders="1" id="_5mSTuPxr-ZiKRkBDSY7-10">
          <mxCell style="whiteSpace=wrap;html=1;strokeWidth=2;fontStyle=1;spacingTop=0;rounded=1;arcSize=9;points=[];sketch=1;fontFamily=Permanent Marker;hachureGap=8;fillWeight=1;" parent="_5mSTuPxr-ZiKRkBDSY7-9" vertex="1">
            <mxGeometry x="20" y="21" width="140" height="80" as="geometry" />
          </mxCell>
        </object>
        <object label="&lt;span style=&quot;font-size: 10px; font-weight: 400;&quot;&gt;&lt;i&gt;Версия прошедшего времени Present Perfect.&lt;br&gt;Прошлое событие, которое имело какое-то влияние на другое прошлое событие, которое было не так давно. Прошлое прошлого.&lt;br&gt;Вчера была вечеринка, а она с ним познакомилась за две недели до вечеринки.&lt;br&gt;&lt;/i&gt;&lt;/span&gt;" placeholders="1" id="KVlz2lxXD8eBiIUDvbPp-40">
          <mxCell style="whiteSpace=wrap;html=1;strokeWidth=2;fontStyle=1;spacingTop=0;rounded=1;arcSize=9;points=[];sketch=1;fontFamily=Permanent Marker;hachureGap=8;fillWeight=1;" vertex="1" parent="_5mSTuPxr-ZiKRkBDSY7-9">
            <mxGeometry x="20" y="121" width="140" height="149" as="geometry" />
          </mxCell>
        </object>
        <object label="&lt;font style=&quot;&quot;&gt;Пример&lt;br&gt;&lt;/font&gt;&lt;span style=&quot;font-weight: 400;&quot;&gt;She &lt;/span&gt;had met &lt;span style=&quot;font-weight: 400;&quot;&gt;him before the party.&lt;br&gt;&lt;br&gt;&lt;/span&gt;" placeholders="1" id="KVlz2lxXD8eBiIUDvbPp-41">
          <mxCell style="whiteSpace=wrap;html=1;strokeWidth=2;fontStyle=1;spacingTop=0;rounded=1;arcSize=9;points=[];sketch=1;fontFamily=Permanent Marker;hachureGap=8;fillWeight=1;" vertex="1" parent="_5mSTuPxr-ZiKRkBDSY7-9">
            <mxGeometry x="20" y="290" width="140" height="80" as="geometry" />
          </mxCell>
        </object>
        <object label="PRESENT PERFECT" status="Completed" id="KVlz2lxXD8eBiIUDvbPp-42">
          <mxCell style="swimlane;strokeWidth=2;fontFamily=Permanent Marker;html=0;startSize=1;verticalAlign=bottom;spacingBottom=5;points=[];childLayout=stackLayout;stackBorder=20;stackSpacing=20;resizeLast=0;resizeParent=1;horizontalStack=0;collapsible=0;sketch=1;strokeColor=none;fillStyle=solid;fillColor=#1BA1E2;" vertex="1" parent="_5mSTuPxr-ZiKRkBDSY7-1">
            <mxGeometry x="1260" y="28" width="180" height="490" as="geometry" />
          </mxCell>
        </object>
        <object label="формула&lt;br style=&quot;border-color: var(--border-color);&quot;&gt;&lt;span style=&quot;font-size: 10px; font-weight: 400;&quot;&gt;&lt;i&gt;have, has + V3, Ved&lt;/i&gt;&lt;/span&gt;" placeholders="1" id="KVlz2lxXD8eBiIUDvbPp-43">
          <mxCell style="whiteSpace=wrap;html=1;strokeWidth=2;fontStyle=1;spacingTop=0;rounded=1;arcSize=9;points=[];sketch=1;fontFamily=Permanent Marker;hachureGap=8;fillWeight=1;" vertex="1" parent="KVlz2lxXD8eBiIUDvbPp-42">
            <mxGeometry x="20" y="21" width="140" height="80" as="geometry" />
          </mxCell>
        </object>
        <object label="&lt;span style=&quot;font-size: 10px; font-weight: 400;&quot;&gt;&lt;i&gt;Настоящее завершенное время. Как прошлое событие повлияло на настоящее время. Прошлое событие произошло и что теперь.&lt;/i&gt;&lt;/span&gt;" placeholders="1" id="KVlz2lxXD8eBiIUDvbPp-44">
          <mxCell style="whiteSpace=wrap;html=1;strokeWidth=2;fontStyle=1;spacingTop=0;rounded=1;arcSize=9;points=[];sketch=1;fontFamily=Permanent Marker;hachureGap=8;fillWeight=1;" vertex="1" parent="KVlz2lxXD8eBiIUDvbPp-42">
            <mxGeometry x="20" y="121" width="140" height="80" as="geometry" />
          </mxCell>
        </object>
        <object label="&lt;font style=&quot;&quot;&gt;Пример&lt;br&gt;&lt;/font&gt;&lt;span style=&quot;font-weight: 400;&quot;&gt;I&lt;/span&gt;`ve seen&lt;span style=&quot;font-weight: 400;&quot;&gt; this before.&lt;br&gt;I &lt;/span&gt;have seen &lt;span style=&quot;font-weight: 400;&quot;&gt;this before.&lt;br&gt;You &lt;/span&gt;have seen &lt;span style=&quot;font-weight: 400;&quot;&gt;this movie so many times.&lt;br&gt;&lt;/span&gt;" placeholders="1" id="KVlz2lxXD8eBiIUDvbPp-45">
          <mxCell style="whiteSpace=wrap;html=1;strokeWidth=2;fontStyle=1;spacingTop=0;rounded=1;arcSize=9;points=[];sketch=1;fontFamily=Permanent Marker;hachureGap=8;fillWeight=1;" vertex="1" parent="KVlz2lxXD8eBiIUDvbPp-42">
            <mxGeometry x="20" y="221" width="140" height="80" as="geometry" />
          </mxCell>
        </object>
        <object label="FUTURE PERFECT" status="Completed" id="KVlz2lxXD8eBiIUDvbPp-38">
          <mxCell style="swimlane;strokeWidth=2;fontFamily=Permanent Marker;html=0;startSize=1;verticalAlign=bottom;spacingBottom=5;points=[];childLayout=stackLayout;stackBorder=20;stackSpacing=20;resizeLast=0;resizeParent=1;horizontalStack=0;collapsible=0;sketch=1;strokeColor=none;fillStyle=solid;fillColor=#1BA1E2;" vertex="1" parent="_5mSTuPxr-ZiKRkBDSY7-1">
            <mxGeometry x="1440" y="28" width="180" height="490" as="geometry" />
          </mxCell>
        </object>
        <object label="формула&lt;br style=&quot;border-color: var(--border-color);&quot;&gt;&lt;span style=&quot;border-color: var(--border-color); font-size: 10px; font-weight: 400;&quot;&gt;&lt;i style=&quot;border-color: var(--border-color);&quot;&gt;will have&amp;nbsp; + V3, Ved&lt;/i&gt;&lt;/span&gt;" placeholders="1" id="KVlz2lxXD8eBiIUDvbPp-39">
          <mxCell style="whiteSpace=wrap;html=1;strokeWidth=2;fontStyle=1;spacingTop=0;rounded=1;arcSize=9;points=[];sketch=1;fontFamily=Permanent Marker;hachureGap=8;fillWeight=1;" vertex="1" parent="KVlz2lxXD8eBiIUDvbPp-38">
            <mxGeometry x="20" y="21" width="140" height="80" as="geometry" />
          </mxCell>
        </object>
        <object label="&lt;span style=&quot;font-size: 10px; font-weight: 400;&quot;&gt;&lt;i&gt;Будущее событие, которое будет позже чем другое будущее событие. Например, мне нужно кое что сделать 6 часам в четверг, а я еще не начал&lt;/i&gt;&lt;/span&gt;" placeholders="1" id="KVlz2lxXD8eBiIUDvbPp-46">
          <mxCell style="whiteSpace=wrap;html=1;strokeWidth=2;fontStyle=1;spacingTop=0;rounded=1;arcSize=9;points=[];sketch=1;fontFamily=Permanent Marker;hachureGap=8;fillWeight=1;" vertex="1" parent="KVlz2lxXD8eBiIUDvbPp-38">
            <mxGeometry x="20" y="121" width="140" height="109" as="geometry" />
          </mxCell>
        </object>
        <object label="&lt;font style=&quot;&quot;&gt;Пример&lt;br&gt;&lt;/font&gt;&lt;span style=&quot;font-weight: 400;&quot;&gt;I &lt;/span&gt;will have done &lt;span style=&quot;font-weight: 400;&quot;&gt;it by 6 o`clock.&lt;br&gt;I &lt;/span&gt;will have gone &lt;span style=&quot;font-weight: 400;&quot;&gt;to Paris by 2022.&lt;br&gt;&lt;/span&gt;" placeholders="1" id="KVlz2lxXD8eBiIUDvbPp-47">
          <mxCell style="whiteSpace=wrap;html=1;strokeWidth=2;fontStyle=1;spacingTop=0;rounded=1;arcSize=9;points=[];sketch=1;fontFamily=Permanent Marker;hachureGap=8;fillWeight=1;" vertex="1" parent="KVlz2lxXD8eBiIUDvbPp-38">
            <mxGeometry x="20" y="250" width="140" height="80" as="geometry" />
          </mxCell>
        </object>
        <mxCell id="KVlz2lxXD8eBiIUDvbPp-35" value="&lt;b&gt;CONTINUOUS или PROGRESSIVE&lt;/b&gt;" style="text;html=1;strokeColor=default;fillColor=none;align=center;verticalAlign=middle;whiteSpace=wrap;rounded=0;fontSize=12;strokeWidth=2;" vertex="1" parent="1">
          <mxGeometry x="700" y="40" width="540" height="30" as="geometry" />
        </mxCell>
        <mxCell id="KVlz2lxXD8eBiIUDvbPp-36" value="&lt;b&gt;SIMPLE&lt;/b&gt;" style="text;html=1;strokeColor=default;fillColor=none;align=center;verticalAlign=middle;whiteSpace=wrap;rounded=0;fontSize=12;strokeWidth=2;" vertex="1" parent="1">
          <mxGeometry x="160" y="40" width="540" height="30" as="geometry" />
        </mxCell>
        <mxCell id="KVlz2lxXD8eBiIUDvbPp-48" value="&lt;b&gt;PERFECT&lt;/b&gt;" style="text;html=1;strokeColor=default;fillColor=none;align=center;verticalAlign=middle;whiteSpace=wrap;rounded=0;fontSize=12;strokeWidth=2;" vertex="1" parent="1">
          <mxGeometry x="1240" y="40" width="540" height="30" as="geometry" />
        </mxCell>
        <object label="PRESE" status="Completed" id="KVlz2lxXD8eBiIUDvbPp-49">
          <mxCell style="swimlane;strokeWidth=2;fontFamily=Permanent Marker;html=0;startSize=1;verticalAlign=bottom;spacingBottom=5;points=[];childLayout=stackLayout;stackBorder=20;stackSpacing=20;resizeLast=0;resizeParent=1;horizontalStack=0;collapsible=0;sketch=1;strokeColor=none;fillStyle=solid;fillColor=#1BA1E2;" vertex="1" parent="1">
            <mxGeometry x="1780" y="108" width="180" height="490" as="geometry" />
          </mxCell>
        </object>
        <object label="формула&lt;br style=&quot;border-color: var(--border-color);&quot;&gt;&lt;span style=&quot;border-color: var(--border-color); font-size: 10px; font-weight: 400;&quot;&gt;&lt;i style=&quot;border-color: var(--border-color);&quot;&gt;will have&amp;nbsp; + V3, Ved&lt;/i&gt;&lt;/span&gt;" placeholders="1" id="KVlz2lxXD8eBiIUDvbPp-50">
          <mxCell style="whiteSpace=wrap;html=1;strokeWidth=2;fontStyle=1;spacingTop=0;rounded=1;arcSize=9;points=[];sketch=1;fontFamily=Permanent Marker;hachureGap=8;fillWeight=1;" vertex="1" parent="KVlz2lxXD8eBiIUDvbPp-49">
            <mxGeometry x="20" y="21" width="140" height="80" as="geometry" />
          </mxCell>
        </object>
        <object label="&lt;span style=&quot;font-size: 10px; font-weight: 400;&quot;&gt;&lt;i&gt;Будущее событие, которое будет позже чем другое будущее событие. Например, мне нужно кое что сделать 6 часам в четверг, а я еще не начал&lt;/i&gt;&lt;/span&gt;" placeholders="1" id="KVlz2lxXD8eBiIUDvbPp-51">
          <mxCell style="whiteSpace=wrap;html=1;strokeWidth=2;fontStyle=1;spacingTop=0;rounded=1;arcSize=9;points=[];sketch=1;fontFamily=Permanent Marker;hachureGap=8;fillWeight=1;" vertex="1" parent="KVlz2lxXD8eBiIUDvbPp-49">
            <mxGeometry x="20" y="121" width="140" height="109" as="geometry" />
          </mxCell>
        </object>
        <object label="&lt;font style=&quot;&quot;&gt;Пример&lt;br&gt;&lt;/font&gt;&lt;span style=&quot;font-weight: 400;&quot;&gt;I &lt;/span&gt;will have done &lt;span style=&quot;font-weight: 400;&quot;&gt;it by 6 o`clock.&lt;br&gt;I &lt;/span&gt;will have gone &lt;span style=&quot;font-weight: 400;&quot;&gt;to Paris by 2022.&lt;br&gt;&lt;/span&gt;" placeholders="1" id="KVlz2lxXD8eBiIUDvbPp-52">
          <mxCell style="whiteSpace=wrap;html=1;strokeWidth=2;fontStyle=1;spacingTop=0;rounded=1;arcSize=9;points=[];sketch=1;fontFamily=Permanent Marker;hachureGap=8;fillWeight=1;" vertex="1" parent="KVlz2lxXD8eBiIUDvbPp-49">
            <mxGeometry x="20" y="250" width="140" height="80" as="geometry" />
          </mxCell>
        </object>
        <mxCell id="KVlz2lxXD8eBiIUDvbPp-53" value="&lt;b&gt;PERFECT CONTINUOUS&lt;/b&gt;" style="text;html=1;strokeColor=default;fillColor=none;align=center;verticalAlign=middle;whiteSpace=wrap;rounded=0;fontSize=12;strokeWidth=2;" vertex="1" parent="1">
          <mxGeometry x="1780" y="40" width="540" height="30" as="geometry" />
        </mxCell>
      </root>
    </mxGraphModel>
  </diagram>
</mxfile>
